<?xml version="1.0" encoding="UTF-8"?>
<svg width="486px" height="486px" viewBox="0 0 486 486" version="1.1" xmlns="http://www.w3.org/2000/svg" xmlns:xlink="http://www.w3.org/1999/xlink">
    <!-- Generator: Sketch 56.3 (81716) - https://sketch.com -->
    <title>Group</title>
    <desc>Created with Sketch.</desc>
    <g id="Page-1" stroke="none" stroke-width="1" fill="none" fill-rule="evenodd">
        <g id="Eesti-Grilliliit-soovitab" transform="translate(-56.000000, -162.000000)">
            <g id="Group" transform="translate(56.000000, 162.000000)">
                <g id="Fill-2" fill="#231F20">
                    <path d="M486,243 C486,377.205 377.205,486 243,486 C108.795,486 0,377.205 0,243 C0,108.795 108.795,0 243,0 C377.205,0 486,108.795 486,243" id="Fill-1"></path>
                </g>
                <path d="M242.2764,64.8037 C143.2614,64.8037 62.9954,145.0697 62.9954,244.0837 C62.9954,343.0977 143.2614,423.3627 242.2764,423.3627 C341.2914,423.3627 421.5564,343.0977 421.5564,244.0837 C421.5564,145.0697 341.2914,64.8037 242.2764,64.8037 L242.2764,64.8037 Z M242.2764,58.4447 C344.8044,58.4447 427.9164,141.5557 427.9164,244.0837 C427.9164,346.6097 344.8044,429.7227 242.2764,429.7227 C139.7484,429.7227 56.6354,346.6097 56.6354,244.0837 C56.6354,141.5557 139.7484,58.4447 242.2764,58.4447 L242.2764,58.4447 Z M333.6484,208.5977 C315.7264,214.6707 280.4954,218.4017 240.0374,217.6957 C199.5744,216.9897 164.4904,212.0297 146.7934,205.3327 C161.7204,214.7337 197.7564,221.7997 239.9514,222.5357 C282.1424,223.2737 318.4004,217.4707 333.6484,208.5977 L333.6484,208.5977 Z M141.9144,199.4697 C144.6564,189.7177 154.4084,165.6447 170.5594,157.7217 C190.9924,147.6987 201.3374,145.8367 222.9734,146.1417 C232.7254,138.5247 238.5144,138.2177 243.6954,137.9137 C248.8764,137.6097 261.6744,140.6567 266.8554,148.5787 C274.7774,148.5787 299.1564,150.1027 314.6974,163.2067 C329.9704,176.0827 332.3574,181.3247 336.5524,197.6297 C338.7094,208.5887 346.8754,205.7617 346.6954,216.5347 C346.6444,219.5817 342.7344,222.9347 336.0294,225.6767 C337.2984,251.0447 301.9004,279.9197 291.8434,281.1377 C291.8434,281.1377 292.4534,287.8417 286.6624,290.2807 C289.4044,299.1167 293.3674,312.8297 293.3674,312.8297 C293.3674,312.8297 306.4704,319.8397 302.2054,327.7627 C301.9004,329.8957 300.6794,331.1157 300.6794,331.1157 L310.7184,362.2207 C308.0524,363.7517 305.3324,365.1977 302.5564,366.5517 L292.1484,335.6867 C292.1484,335.6867 278.7404,342.9987 249.4854,342.3897 L247.8474,380.3207 C245.9994,380.3947 244.1414,380.4317 242.2764,380.4317 L240.1624,380.4147 L241.5624,342.0847 L233.3344,341.4747 C233.3344,341.4747 232.1614,364.0567 231.1494,379.9887 C228.0354,379.7397 224.9504,379.3847 221.8984,378.9317 C223.0894,360.0487 224.1924,340.2567 224.1924,340.2567 C224.1924,340.2567 218.0974,340.5607 202.2514,336.5997 C193.4134,333.8577 190.0624,331.7237 180.3104,327.4567 C178.8864,330.6857 173.5864,342.8217 166.9634,357.9987 C164.6794,356.5017 162.4434,354.9387 160.2564,353.3117 L173.9114,321.9717 C173.9114,321.9717 167.8174,314.9637 175.4354,309.1737 C177.5684,307.0397 180.3104,305.5177 180.3104,305.5177 L189.7574,284.1857 C189.7574,284.1857 185.4914,281.7467 185.1864,278.0907 C174.5294,274.8477 146.8714,245.4417 144.3524,219.8867 C128.2004,212.5747 133.9904,200.9937 141.9144,199.4697 L141.9144,199.4697 Z M191.5854,301.5547 C191.5854,301.5547 208.0414,296.9847 221.4494,298.5077 C218.0974,296.6787 218.7064,288.7567 218.7064,288.7567 C218.7064,288.7567 209.5654,286.9277 204.6894,285.4057 C201.6414,287.5367 197.3754,286.9277 197.3754,286.9277 L191.5854,301.5547 Z M247.9614,290.5837 L248.2674,299.1167 C260.5504,300.4267 272.0294,303.1697 282.7014,307.3447 L278.1304,293.0227 C278.1304,293.0227 269.2934,292.7177 268.0744,288.4517 C262.2854,289.6707 247.9614,290.5837 247.9614,290.5837 L247.9614,290.5837 Z M355.5394,371.8837 L342.7574,358.1787 L350.6724,350.7997 L352.9044,353.1947 L348.0954,357.6807 L350.9514,360.7437 L355.5274,356.4777 L357.7594,358.8737 L353.1854,363.1397 L356.4084,366.5967 L361.4554,361.8897 L363.6894,364.2847 L355.5394,371.8837 Z M342.3024,382.5427 L331.0254,367.5757 L339.6664,361.0647 L341.6364,363.6807 L336.3844,367.6387 L338.9044,370.9847 L343.9004,367.2197 L345.8734,369.8337 L340.8754,373.5997 L343.7204,377.3727 L349.2304,373.2207 L351.2014,375.8367 L342.3024,382.5427 Z M333.4454,388.4897 L331.2524,385.1137 L334.4944,383.0067 L336.6894,386.3837 L333.4454,388.4897 Z M323.1444,394.5137 L315.6974,381.0827 L312.1294,383.0607 L310.4884,380.1017 L321.4784,374.0107 L323.1174,376.9697 L319.5484,378.9487 L326.9944,392.3787 L323.1444,394.5137 Z M310.4234,400.7227 L302.5044,383.7377 L306.4944,381.8757 L314.4144,398.8617 L310.4234,400.7227 Z M299.7974,404.8987 L293.0824,387.4037 L297.1914,385.8247 L303.9084,403.3217 L299.7974,404.8987 Z M284.5174,409.5597 L279.6684,391.4587 L283.9224,390.3187 L287.8964,405.1527 L293.8864,403.5467 L294.7614,406.8157 L284.5174,409.5597 Z M273.3634,411.9767 L269.7864,393.5807 L274.1094,392.7417 L277.6854,411.1367 L273.3634,411.9767 Z M257.1324,414.2137 L254.8474,395.6137 L259.2184,395.0767 L261.0894,410.3197 L267.2464,409.5647 L267.6584,412.9217 L257.1324,414.2137 Z M241.1664,414.8177 L240.8394,396.0797 L245.2414,396.0037 L245.5104,411.3587 L251.7114,411.2497 L251.7704,414.6327 L241.1664,414.8177 Z M229.9634,414.3787 L231.2704,395.6837 L235.6634,395.9917 L234.3554,414.6857 L229.9634,414.3787 Z M217.0864,397.2407 L216.4144,402.0257 L217.7694,402.2157 C219.4444,402.4507 220.4794,401.4577 220.6664,400.1287 C220.7744,399.3577 220.7554,397.7557 218.4154,397.4267 L217.0864,397.2407 Z M210.7184,412.0697 L213.3264,393.5117 L220.1324,394.4687 C223.1904,394.8997 225.6054,396.6197 225.1234,400.0497 C225.0154,400.8217 224.4794,403.8647 220.7884,404.0777 C222.1154,404.4807 222.5414,405.2997 222.9224,407.6037 L223.9854,413.9347 L219.4124,413.2927 L218.6754,408.1177 C218.3124,405.4917 217.7274,405.4087 216.1314,405.1847 L215.0784,412.6827 L210.7184,412.0697 Z M200.2624,401.7487 L201.0834,398.6887 L207.4624,400.3987 L204.8564,410.1227 C203.7784,410.3077 201.5134,410.2557 198.6084,409.4767 C195.2374,408.5747 190.4314,405.4527 192.5094,397.6987 C193.6974,393.2637 197.4804,389.1067 204.3784,390.9547 C206.5044,391.5257 207.9224,392.3497 208.9294,392.9527 L207.7174,396.4367 C206.9224,395.7797 205.7064,394.8137 203.8394,394.3127 C199.3534,393.1117 197.3664,396.9977 196.8174,399.0467 C195.9144,402.4177 196.7614,405.4817 200.0034,406.3497 C200.6254,406.5167 201.1394,406.5697 201.5504,406.4857 L202.6484,402.3887 L200.2624,401.7487 Z M180.9374,403.4597 L182.3804,399.6997 L185.9894,401.0847 L184.5474,404.8457 L180.9374,403.4597 Z M169.1954,398.3307 L173.4024,384.1927 L164.8754,396.2247 L160.2424,393.9647 L164.9974,375.7837 L151.3554,388.9097 L147.1324,385.9527 L153.5004,372.6467 L143.1954,383.1967 L138.9734,380.2407 L146.6434,362.7337 L150.1184,365.1657 L144.3274,377.3677 L153.8344,367.7687 L158.0574,370.7257 L152.2884,382.9427 L161.9504,373.4507 L165.0424,375.6167 L168.8914,377.3337 L165.0814,390.2907 L172.9694,379.3227 L177.6034,381.5827 L173.8164,394.5527 L181.8744,383.6657 L185.3494,385.3607 L173.8284,400.5917 L169.1954,398.3307 Z M127.1204,370.1417 L135.2774,357.8507 L123.6064,366.8647 L119.8364,363.3487 L129.8674,347.0787 L132.9694,349.9727 L125.5374,361.2487 L136.2884,353.0667 L140.0584,356.5817 L132.6454,367.8787 L143.5334,359.8227 L146.3604,362.4597 L130.8914,373.6577 L127.1204,370.1417 Z M237.7074,129.4327 L234.7834,73.6187 C237.2684,73.5117 239.7654,73.4577 242.2764,73.4577 C248.7844,73.4577 255.2094,73.8227 261.5274,74.5317 L255.6154,130.7597 C250.6644,129.2497 246.0484,128.7447 243.1664,128.9137 C241.4644,129.0147 239.6614,129.1357 237.7074,129.4327 L237.7074,129.4327 Z M202.9554,137.8637 L182.3834,84.2657 C190.6934,81.1497 199.3124,78.6627 208.1804,76.8657 L220.8564,136.5177 L220.0224,137.0997 C213.6464,137.0747 208.1304,137.2797 202.9554,137.8637 L202.9554,137.8637 Z M167.0704,149.3927 L135.7874,110.7577 C142.7794,105.1647 150.2214,100.1127 158.0494,95.6607 L184.7534,141.9187 C179.3794,143.7307 173.6864,146.1637 167.0704,149.3927 L167.0704,149.3927 Z M141.1694,177.4437 L99.6114,150.4517 C104.5624,142.9217 110.0954,135.8067 116.1454,129.1707 L151.9054,161.3727 C147.5744,166.3607 144.0084,172.0157 141.1694,177.4437 L141.1694,177.4437 Z M125.5884,212.3837 L77.5314,199.5037 C79.8994,190.7337 82.9484,182.2417 86.6194,174.0917 L131.9894,194.2927 C126.5274,198.5257 123.8544,205.4927 125.5884,212.3837 L125.5884,212.3837 Z M145.3634,249.1867 L71.8804,253.0357 C71.7274,250.0707 71.6494,247.0857 71.6494,244.0837 C71.6494,237.9917 71.9684,231.9727 72.5914,226.0457 L138.0164,232.9257 C139.8104,238.4397 142.3544,243.9307 145.3634,249.1867 L145.3634,249.1867 Z M164.7944,274.3247 L83.1064,305.6787 C79.8814,297.3507 77.2914,288.7067 75.3954,279.8057 L154.6574,262.9617 C157.9394,267.1577 161.3884,270.9967 164.7944,274.3247 L164.7944,274.3247 Z M164.6014,308.0887 L110.2114,352.1307 C104.5234,345.1857 99.3714,337.7837 94.8194,329.9897 L175.7044,283.2937 C176.4854,283.8027 177.2474,284.2657 177.9884,284.6817 C178.3014,285.2527 178.6364,285.7827 178.9764,286.2647 L173.1624,299.3957 C172.1164,300.1277 170.7894,301.1407 169.4934,302.3767 C167.3004,304.1367 165.7034,306.0757 164.6014,308.0887 L164.6014,308.0887 Z M305.8714,284.4087 L385.8364,336.3377 C381.0174,343.8197 375.6324,350.8997 369.7384,357.5177 L297.6054,292.5697 C298.7304,290.9337 299.4764,289.2447 299.9534,287.7347 C301.7974,286.8467 303.7894,285.7297 305.8714,284.4087 L305.8714,284.4087 Z M326.8794,266.3247 L407.2364,287.8577 C404.9454,296.5027 401.9964,304.8807 398.4414,312.9317 L316.5274,276.4587 C320.0474,273.4477 323.5684,270.0337 326.8794,266.3247 L326.8794,266.3247 Z M343.2614,238.8227 L412.6734,235.1857 C412.8264,238.1317 412.9024,241.0987 412.9024,244.0837 C412.9024,250.0417 412.5954,255.9287 412.0024,261.7277 L336.3474,253.7757 C339.3244,248.9877 341.7344,243.9527 343.2614,238.8227 L343.2614,238.8227 Z M348.4124,203.9347 L401.7814,183.3637 C404.9084,191.5747 407.4224,200.0887 409.2594,208.8527 L355.1294,220.3577 C361.0114,215.8137 352.8434,203.8777 348.4124,203.9347 L348.4124,203.9347 Z M334.6774,170.3747 L375.4274,137.3777 C380.9644,144.2817 385.9804,151.6227 390.4064,159.3447 L342.8694,186.7887 C340.8244,180.3187 338.5194,175.3747 334.6774,170.3747 L334.6774,170.3747 Z M306.3594,147.5657 L336.2034,101.6137 C343.6344,106.5247 350.6604,111.9987 357.2164,117.9787 L321.7504,157.3677 L320.5094,156.3157 C316.1814,152.6657 311.3394,149.8057 306.3594,147.5657 L306.3594,147.5657 Z M312.8714,88.7007 L289.1324,142.0167 C282.3244,140.5447 276.1344,139.9357 271.6674,139.6997 L287.7754,79.5907 C296.4374,81.9817 304.8224,85.0377 312.8714,88.7007 L312.8714,88.7007 Z" id="Fill-3" fill="#FFFFFF"></path>
                <polygon id="Fill-5" fill="#FFFFFF" points="81.7222 119.4238 77.8922 127.2448 82.2012 134.8428 73.5552 133.6018 67.6692 140.0198 66.1502 131.4258 58.2012 127.8068 65.9122 123.7298 66.8972 115.0628 73.1762 121.1288"></polygon>
                <polygon id="Fill-7" fill="#FFFFFF" points="65.9585 142.9404 63.2485 151.2154 68.5665 158.1444 59.8325 158.1124 54.8925 165.2834 52.1975 156.9824 43.8245 154.4984 50.8965 149.3934 50.6725 140.6724 57.7305 145.8114"></polygon>
                <polygon id="Fill-9" fill="#FFFFFF" points="53.6133 168.3862 52.0803 176.9582 58.3103 183.0802 49.6563 184.2632 45.7603 192.0512 41.9383 184.2052 33.3013 182.9092 39.5953 176.8702 38.1603 168.2662 45.8643 172.3732"></polygon>
                <polygon id="Fill-11" fill="#FFFFFF" points="18.6851 250.6455 12.6011 250.4655 13.3221 226.0515 46.5221 227.0315 45.8111 251.1135 39.7271 250.9345 40.1941 235.1005 33.2311 234.8955 32.7861 249.9945 26.7021 249.8145 27.1471 234.7155 19.1621 234.4795"></polygon>
                <polygon id="Fill-13" fill="#FFFFFF" points="21.8525 282.958 15.8045 283.645 13.0495 259.375 46.0525 255.628 48.7695 279.567 42.7225 280.254 40.9355 264.515 34.0135 265.301 35.7175 280.31 29.6695 280.996 27.9655 265.987 20.0285 266.889"></polygon>
                <path d="M53.2769,306.2119 L46.9959,307.8479 C47.8049,303.0949 47.8819,299.4569 47.2249,296.9329 C46.8499,295.4939 46.3109,294.4129 45.6069,293.6909 C44.9019,292.9669 44.1519,292.7089 43.3539,292.9169 C42.7399,293.0759 42.2369,293.5339 41.8439,294.2899 C41.4509,295.0449 41.1269,296.7229 40.8699,299.3219 C40.6119,301.9209 40.2939,304.0289 39.9119,305.6489 C39.5309,307.2669 38.7919,308.7699 37.6959,310.1579 C36.5999,311.5459 35.0079,312.5119 32.9229,313.0549 C29.9459,313.8299 27.2829,313.3179 24.9309,311.5209 C22.5799,309.7239 20.9239,306.9819 19.9639,303.2939 C18.9289,299.3159 18.9609,295.1909 20.0589,290.9199 L26.9849,289.1159 C26.1009,291.6339 25.5439,293.8049 25.3149,295.6289 C25.0849,297.4519 25.2109,299.2899 25.6939,301.1419 C26.5099,304.2769 27.9069,305.5879 29.8839,305.0729 C30.5589,304.8979 31.1129,304.4179 31.5479,303.6349 C31.9829,302.8519 32.3169,301.1509 32.5519,298.5329 C32.7869,295.9149 33.0899,293.8109 33.4629,292.2189 C33.8349,290.6279 34.5709,289.1459 35.6719,287.7739 C36.7729,286.3999 38.3899,285.4369 40.5229,284.8819 C43.2839,284.1619 45.8009,284.6909 48.0739,286.4689 C50.3469,288.2449 51.9679,290.9919 52.9359,294.7099 C53.8279,298.1369 53.9419,301.9709 53.2769,306.2119" id="Fill-15" fill="#FFFFFF"></path>
                <polygon id="Fill-17" fill="#FFFFFF" points="68.4019 337.3076 62.8099 339.7106 58.0719 328.6876 33.1489 339.3986 29.8899 331.8166 54.8139 321.1056 50.0759 310.0806 55.6689 307.6776"></polygon>
                <polygon id="Fill-19" fill="#FFFFFF" points="74.9351 347.5049 46.2481 364.2459 42.0881 357.1179 70.7751 340.3769"></polygon>
                <path d="M104.9136,389.2197 L99.5096,394.0547 C98.2186,389.5457 96.2296,385.7887 93.5416,382.7847 C90.9486,379.8867 88.2186,378.3097 85.3516,378.0527 C82.4846,377.7967 79.9176,378.6827 77.6496,380.7117 C75.4756,382.6567 74.4166,385.0147 74.4726,387.7867 C74.5276,390.5587 75.6986,393.2227 77.9866,395.7797 C79.1986,397.1337 80.7106,398.2307 82.5246,399.0697 L85.4136,396.4857 L82.2196,392.9147 L86.7546,388.8567 L95.4676,398.5947 L85.3496,407.6467 C83.4946,407.5457 81.3636,406.7747 78.9566,405.3317 C76.5496,403.8907 74.4716,402.1917 72.7216,400.2357 C68.8736,395.9347 66.9036,391.3387 66.8126,386.4467 C66.7206,381.5537 68.5116,377.4647 72.1856,374.1777 C75.9426,370.8167 80.2406,369.4577 85.0806,370.1017 C89.9206,370.7447 94.3076,373.2647 98.2396,377.6587 C101.4856,381.2877 103.7106,385.1417 104.9136,389.2197" id="Fill-21" fill="#FFFFFF"></path>
                <path d="M112.9189,400.7061 L108.1999,406.6131 L111.6089,409.3371 C112.6959,410.2051 113.7619,410.6361 114.8089,410.630162 C115.8559,410.6251 116.7599,410.1451 117.5219,409.1911 C119.0849,407.2341 118.6379,405.2741 116.1799,403.3101 L112.9189,400.7061 Z M110.2709,390.8001 L121.8319,400.0351 C124.3389,402.0381 125.7959,404.3941 126.2029,407.1021 C126.6099,409.8091 125.9879,412.1951 124.3369,414.2631 C122.0529,417.1211 118.8799,418.0541 114.8179,417.0591 C115.6439,418.6891 115.6039,421.2711 114.6989,424.8061 C113.7929,428.3411 112.9649,431.6931 112.2159,434.8671 L105.1419,429.2151 C105.4019,428.0221 105.9669,425.8071 106.8369,422.5651 C107.7059,419.3241 108.0399,417.0651 107.8359,415.7871 C107.6329,414.5091 107.1059,413.5291 106.2529,412.8491 L104.4009,411.3681 L95.9869,421.9011 L89.5389,416.7501 L110.2709,390.8001 Z" id="Fill-23" fill="#FFFFFF"></path>
                <polygon id="Fill-25" fill="#FFFFFF" points="142.6543 414.3057 125.1123 442.5097 118.1053 438.1517 135.6473 409.9477"></polygon>
                <polygon id="Fill-27" fill="#FFFFFF" points="159.312 453.1318 156.694 458.6268 133.894 447.7668 148.177 417.7788 155.627 421.3278 143.962 445.8198"></polygon>
                <polygon id="Fill-29" fill="#FFFFFF" points="189.3262 462.7568 187.5132 468.5678 163.4042 461.0468 173.2962 429.3388 181.1732 431.7968 173.0952 457.6938"></polygon>
                <polygon id="Fill-31" fill="#FFFFFF" points="209.2993 438.793 203.0333 471.411 194.9283 469.855 201.1953 437.236"></polygon>
                <polygon id="Fill-33" fill="#FFFFFF" points="238.7622 469.0645 238.2882 475.1325 213.1102 473.1645 215.6992 440.0505 223.9262 440.6935 221.8112 467.7395"></polygon>
                <polygon id="Fill-35" fill="#FFFFFF" points="252.9844 441.2939 254.0514 474.4909 245.8034 474.7569 244.7364 441.5599"></polygon>
                <polygon id="Fill-37" fill="#FFFFFF" points="269.0352 439.7842 272.8052 472.7842 264.6052 473.7212 260.8362 440.7212"></polygon>
                <polygon id="Fill-39" fill="#FFFFFF" points="304.2227 432.2881 305.6507 438.2041 293.9867 441.0191 300.3517 467.3911 292.3287 469.3261 285.9647 442.9561 274.3007 445.7701 272.8727 439.8541"></polygon>
                <path d="M340.4727,418.1045 L343.3547,423.9205 C338.5357,424.0965 334.9587,424.7625 332.6217,425.9205 C331.2897,426.5815 330.3417,427.3295 329.7777,428.1665 C329.2127,429.0025 329.1137,429.7915 329.4797,430.5295 C329.7607,431.0975 330.3117,431.4965 331.1317,431.7275 C331.9517,431.9585 333.6597,431.9335 336.2567,431.6555 C338.8537,431.3775 340.9837,431.2605 342.6457,431.3035 C344.3077,431.3465 345.9297,431.7635 347.5117,432.5535 C349.0947,433.3445 350.3647,434.7055 351.3217,436.6365 C352.6867,439.3925 352.7287,442.1045 351.4487,444.7725 C350.1677,447.4415 347.8207,449.6215 344.4067,451.3125 C340.7237,453.1365 336.6787,453.9475 332.2727,453.7425 L329.0957,447.3295 C331.7407,447.6815 333.9787,447.7845 335.8117,447.6365 C337.6437,447.4905 339.4167,446.9925 341.1307,446.1425 C344.0357,444.7045 345.0337,443.0695 344.1257,441.2385 C343.8177,440.6135 343.2347,440.1675 342.3787,439.9025 C341.5237,439.6365 339.7907,439.6565 337.1797,439.9585 C334.5687,440.2625 332.4467,440.3945 330.8127,440.3545 C329.1787,440.3145 327.5777,439.8955 326.0097,439.0975 C324.4417,438.2995 323.1677,436.9145 322.1907,434.9395 C320.9227,432.3815 320.9277,429.8095 322.2037,427.2215 C323.4807,424.6345 325.8397,422.4885 329.2827,420.7835 C332.4547,419.2105 336.1857,418.3185 340.4727,418.1045" id="Fill-41" fill="#FFFFFF"></path>
                <path d="M372.9258,426.0186 C375.4608,424.1816 376.9558,421.9496 377.4128,419.3186 C377.8688,416.6876 377.2088,414.1466 375.4328,411.6956 C373.6478,409.2306 371.4358,407.8086 368.7988,407.4286 C366.1618,407.0496 363.5758,407.7786 361.0408,409.6146 C358.4928,411.4596 356.9868,413.6976 356.5188,416.3266 C356.0508,418.9556 356.7098,421.5016 358.4958,423.9656 C360.2728,426.4176 362.4848,427.8336 365.1328,428.2146 C367.7798,428.5966 370.3778,427.8646 372.9258,426.0186 M356.9818,404.0116 C361.5518,400.7006 366.2538,399.4036 371.0868,400.1196 C375.9208,400.8356 379.6668,403.0296 382.3268,406.7006 C385.0248,410.4226 385.9288,414.6896 385.0418,419.5006 C384.1548,424.3126 381.4648,428.3466 376.9718,431.6026 C372.4268,434.8946 367.7408,436.2146 362.9148,435.5616 C358.0878,434.9096 354.3178,432.7086 351.6018,428.9606 C348.9328,425.2776 348.0168,421.0286 348.8528,416.2136 C349.6888,411.3996 352.3988,407.3316 356.9818,404.0116" id="Fill-43" fill="#FFFFFF"></path>
                <path d="M405.499,397.209 C407.632,394.918 408.669,392.438 408.609,389.77 C408.551,387.101 407.413,384.734 405.197,382.671 C402.971,380.597 400.526,379.628 397.865,379.764 C395.205,379.899 392.808,381.113 390.675,383.403 C388.53,385.706 387.482,388.192 387.531,390.861 C387.579,393.531 388.717,395.902 390.943,397.977 C393.159,400.04 395.603,401.004 398.275,400.867 C400.947,400.73 403.354,399.512 405.499,397.209 M385.611,378.688 C389.458,374.559 393.821,372.379 398.702,372.149 C403.583,371.921 407.682,373.352 410.999,376.44 C414.363,379.573 416.074,383.586 416.131,388.479 C416.188,393.371 414.326,397.847 410.545,401.908 C406.72,406.015 402.377,408.214 397.516,408.503 C392.653,408.793 388.529,407.361 385.142,404.207 C381.813,401.106 380.095,397.114 379.987,392.229 C379.88,387.344 381.754,382.83 385.611,378.688" id="Fill-45" fill="#FFFFFF"></path>
                <polygon id="Fill-47" fill="#FFFFFF" points="415.6758 338.9258 435.2568 370.2778 433.2788 373.2618 396.3688 368.0488 401.3358 360.5568 421.9978 363.7378 410.7648 346.3348"></polygon>
                <polygon id="Fill-49" fill="#FFFFFF" points="419.8994 328.9922 449.6114 343.8382 445.9224 351.2212 416.2114 336.3742"></polygon>
                <polygon id="Fill-51" fill="#FFFFFF" points="432.834 295.3984 438.571 297.4324 434.562 308.7414 460.13 317.8064 457.372 325.5854 431.804 316.5194 427.794 327.8294 422.058 325.7944"></polygon>
                <path d="M456.3262,282.7051 L442.6162,285.4541 L454.3302,292.7441 L456.3262,282.7051 Z M435.7382,279.3231 L471.1842,271.3691 L469.4542,280.0721 L462.4862,281.4701 L459.5942,296.0201 L465.5472,299.7261 L463.8422,308.3031 L433.8742,288.7021 L435.7382,279.3231 Z" id="Fill-53" fill="#FFFFFF"></path>
                <path d="M457.7549,256.3901 L465.5979,256.6311 L465.7399,251.9851 C465.8079,249.7891 465.5509,248.2001 464.9709,247.2171 C464.3909,246.2341 463.3479,245.7201 461.8429,245.6731 C460.6869,245.6381 459.7569,246.0681 459.0559,246.9641 C458.3549,247.8601 457.9799,249.0741 457.9329,250.6071 L457.7549,256.3901 Z M444.5659,255.9851 L451.6719,256.2031 L451.8039,251.8901 C451.8449,250.5621 451.5359,249.5171 450.8769,248.7531 C450.2189,247.9901 449.3749,247.5921 448.3449,247.5601 C447.3309,247.5291 446.4809,247.8751 445.7919,248.5971 C445.1039,249.3191 444.7389,250.3441 444.6979,251.6711 L444.5659,255.9851 Z M438.2289,264.0471 L438.6689,249.7301 C438.7739,246.3171 439.6789,243.6611 441.3849,241.7601 C443.0919,239.8591 445.0679,238.9421 447.3169,239.0121 C450.1979,239.1001 452.3589,240.6771 453.8029,243.7421 C454.4749,241.4851 455.5909,239.7761 457.1499,238.6141 C458.7089,237.4521 460.5029,236.9021 462.5319,236.9641 C465.4169,237.0531 467.7339,238.1121 469.4799,240.1431 C471.2269,242.1741 472.0409,245.1091 471.9229,248.9491 L471.4279,265.0661 L438.2289,264.0471 Z" id="Fill-55" fill="#FFFFFF"></path>
                <path d="M467.7324,230.2295 C466.5804,230.3225 465.5544,229.9895 464.6584,229.2295 C463.7614,228.4695 463.2664,227.5065 463.1714,226.3395 C463.0794,225.1895 463.4144,224.1675 464.1754,223.2725 C464.9384,222.3785 465.8964,221.8845 467.0494,221.7915 C468.2184,221.6965 469.2484,222.0295 470.1354,222.7905 C471.0244,223.5515 471.5154,224.5065 471.6084,225.6575 C471.7034,226.8235 471.3734,227.8535 470.6184,228.7475 C469.8644,229.6405 468.9024,230.1345 467.7324,230.2295 M442.5614,223.9635 C444.7734,223.7845 448.0774,223.8945 452.4744,224.2915 C456.8724,224.6885 459.4104,225.0025 460.0884,225.2335 C460.7674,225.4635 461.1314,225.8865 461.1814,226.5005 C461.2354,227.1635 460.9994,227.6345 460.4724,227.9145 C459.9474,228.1945 457.6624,228.8995 453.6194,230.0275 C449.5764,231.1555 446.1084,231.8365 443.2174,232.0705 C439.7254,232.3535 437.8704,231.1325 437.6494,228.4055 C437.4324,225.7275 439.0694,224.2465 442.5614,223.9635" id="Fill-57" fill="#FFFFFF"></path>
                <polygon id="Fill-59" fill="#FFFFFF" points="440.7178 198.7583 437.0888 190.8423 428.4808 189.3653 434.9148 183.4593 433.6738 174.8403 441.2878 179.1053 449.1218 175.2453 447.3958 183.7963 453.4808 190.0453 444.8098 191.0643"></polygon>
                <polygon id="Fill-61" fill="#FFFFFF" points="432.5078 171.7036 427.8138 164.3696 419.0828 164.1036 424.6338 157.3606 422.2058 148.9976 430.3388 152.1616 437.5608 147.2506 437.0388 155.9576 443.9348 161.3006 435.4888 163.5156"></polygon>
                <polygon id="Fill-63" fill="#FFFFFF" points="420.5986 146.0269 414.9336 139.4139 406.2496 140.3609 410.8126 132.9129 407.2496 124.9669 415.7436 126.9749 422.2136 121.1099 422.9046 129.8049 430.4736 134.1399 422.4166 137.5049"></polygon>
            </g>
        </g>
    </g>
</svg>