<?xml version="1.0" encoding="utf-8"?>
<!-- Generator: Adobe Illustrator 25.0.1, SVG Export Plug-In . SVG Version: 6.00 Build 0)  -->
<svg version="1.1" id="Layer_1" xmlns="http://www.w3.org/2000/svg" xmlns:xlink="http://www.w3.org/1999/xlink" x="0px" y="0px"
	 viewBox="0 0 1366 768" style="enable-background:new 0 0 1366 768;" xml:space="preserve">
<style type="text/css">
	.st0{fill:none;stroke:#FFFFFF;stroke-width:10;stroke-miterlimit:10;}
	.st1{fill:none;}
	.st2{fill:none;stroke:#FFFFFF;stroke-width:13;stroke-miterlimit:10;}
	.st3{fill:#FFFFFF;stroke:#FFFFFF;stroke-miterlimit:10;}
	.st4{font-family:'Futura-Medium';}
	.st5{font-size:166.5292px;}
</style>
<g>
	<g>
		<path class="st0" d="M232.06,382c12.02-6.08,29.8-12.73,49.75-10.39c18.89,2.21,21.5,10.35,40.12,11.69
			c22.78,1.64,30.34-9.7,56.17-10.39c15.86-0.42,28.85,3.43,36.91,6.49"/>
		<path class="st0" d="M232.06,401.48c12.02-6.08,29.8-12.73,49.75-10.39c18.89,2.21,21.5,10.35,40.12,11.69
			c22.78,1.64,30.34-9.7,56.17-10.39c15.86-0.42,28.85,3.43,36.91,6.49"/>
		<path class="st0" d="M232.06,420.97c12.02-6.08,29.8-12.73,49.75-10.39c18.89,2.21,21.5,10.35,40.12,11.69
			c22.78,1.64,30.34-9.7,56.17-10.39c15.86-0.42,28.85,3.43,36.91,6.49"/>
	</g>
	<path class="st0" d="M231.19,352.88c2.73,3.2,7.58,2.87,14.81,2.61c12.48-0.45,25.01,0.86,37.46,0c5.65-0.39,19.45-0.55,47.05-0.87
		c27.45-0.32,41.17-0.48,44.43,0c10.35,1.52,20.92,0.26,31.37,0.87c4.15,0.24,7.64,0.5,9.58-1.74c3.57-4.11-0.82-13.45-6.1-24.4
		c-3.76-7.8-6.59-13.66-12.2-20.91c-4.8-6.19-14.51-18.45-31.37-26.14c-11.82-5.39-21.63-6.02-36.59-6.97
		c-11.69-0.74-21.82-1.39-34.85,1.74c-6.54,1.57-21.83,5.44-36.59,18.3c-12.55,10.94-18.04,22.56-21.78,30.49
		C232.09,335.04,226.35,347.21,231.19,352.88z"/>
	<path class="st0" d="M232.93,439.14c-3.28,4.05,5.1,15.69,6.97,18.3c3.02,4.19,7.47,10.24,15.68,14.81
		c7.05,3.92,13.19,4.71,21.35,5.66c7.13,0.84,8.74,0.24,26.14,0c3.51-0.05,11.05-0.03,26.14,0c7.84,0.02,15.68-0.04,23.52,0
		c11.59,0.06,16.99,0.19,24.83-1.31c4.89-0.93,8.11-1.53,12.2-3.48c8.49-4.05,13.17-10.24,16.55-14.81
		c1.51-2.05,11.24-15.2,7.84-19.17c-1.08-1.26-3.01-1.05-6.1-0.87c-6.67,0.4-13.39-0.67-20.04,0c-5.31,0.54-3.2-0.08-35.72,0
		c-37.04,0.09-31.39,0.87-42.26,0.44c-23.8-0.95-47.74,1.48-71.44-0.87C237.41,437.71,234.35,437.39,232.93,439.14z"/>
</g>
<path class="st0" d="M304.35,227.73c5.86-0.69,11.82-1.05,17.87-1.05c82.97,0,150.24,67.26,150.24,150.24
	s-67.26,150.24-150.24,150.24c-75.16,0-137.43-55.19-148.49-127.26"/>
<path id="SVGID_x5F_1_x5F_" class="st1" d="M185.66,405.31c-1.15-7.49-1.75-15.16-1.75-22.98c0-60.43,35.68-112.52,87.11-136.37
	c7.58-3.51,15.5-6.42,23.7-8.64c7-1.9,14.19-3.3,21.55-4.17"/>
<text><textPath  xlink:href="#SVGID_x5F_1_x5F_" startOffset="26.151%">
<tspan  class="st4" style="fill:#FB47DD;stroke:#FA00FF;stroke-miterlimit:10; font-size:52.0675px; letter-spacing:93;">burger</tspan></textPath>
</text>
<g>
	<path class="st2" d="M647.76,343.99c8.15-12.36,20.22-25.89,33.76-21.13c12.81,4.5,14.59,21.04,27.22,23.77
		c15.46,3.34,20.59-19.73,38.11-21.13c10.76-0.86,19.57,6.98,25.05,13.21"/>
	<path class="st2" d="M647.76,383.61c8.15-12.36,20.22-25.89,33.76-21.13c12.81,4.5,14.59,21.04,27.22,23.77
		c15.46,3.34,20.59-19.73,38.11-21.13c10.76-0.86,19.57,6.98,25.05,13.21"/>
	<path class="st2" d="M647.76,423.23c8.15-12.36,20.22-25.89,33.76-21.13c12.81,4.5,14.59,21.04,27.22,23.77
		c15.46,3.34,20.59-19.73,38.11-21.13c10.76-0.86,19.57,6.98,25.05,13.21"/>
</g>
<rect x="495.76" y="296.18" class="st1" width="144.44" height="171.73"/>
<text transform="matrix(1 0 0 1 495.759 433.5125)" class="st3 st4 st5">N</text>
<rect x="779.63" y="297" class="st1" width="450.5" height="170.08"/>
<text transform="matrix(1 0 0 1 779.6315 434.3351)" class="st3 st4 st5">HATU</text>
<rect x="107.01" y="175.89" class="st0" width="1153.14" height="389.66"/>
</svg>
